<?xml version="1.0" encoding="utf-8"?>
<!-- Generator: Adobe Illustrator 16.0.0, SVG Export Plug-In . SVG Version: 6.00 Build 0)  -->
<!DOCTYPE svg PUBLIC "-//W3C//DTD SVG 1.1//EN" "http://www.w3.org/Graphics/SVG/1.1/DTD/svg11.dtd">
<svg version="1.1" id="Layer_1" xmlns="http://www.w3.org/2000/svg" xmlns:xlink="http://www.w3.org/1999/xlink" x="0px" y="0px"
	 width="100%" height="100%" fill="#9c9c9c" viewBox="0 0 496.476 102.721" enable-background="new 0 0 496.476 102.721"
	 xml:space="preserve">
<defs>
	<link href="logo_style.css" type="text/css" rel="stylesheet" 
          xmlns="http://www.w3.org/1999/xhtml"/>
</defs>
<g>
	<rect x="54.291" y="1.037" fill="none" width="389.687" height="43.038"/>
	<path d="M56.857,2.988h5.941l2.883,11.619c0.305,1.289,0.545,2.517,0.721,3.683s0.346,2.265,0.51,3.296h0.141
		c0.164-1.031,0.334-2.13,0.51-3.296s0.416-2.394,0.721-3.683l2.971-11.619h5.818v30.023h-4.254V23.08
		c0-1.523,0.015-2.988,0.044-4.395s0.067-2.698,0.114-3.876s0.1-2.218,0.158-3.12s0.111-1.617,0.158-2.145h-0.334l-4.535,19.6
		h-2.883l-4.57-19.6h-0.334c0.047,0.527,0.1,1.242,0.158,2.145s0.111,1.942,0.158,3.12s0.085,2.47,0.114,3.876
		s0.044,2.871,0.044,4.395v9.932h-4.254V2.988z"/>
	<path d="M82.205,2.988h11.127v3.586h-6.574v8.982h5.08v3.586h-5.08v10.283h6.75v3.586H82.205V2.988z"/>
	<path d="M96.795,2.988h11.127v3.586h-6.574v8.982h5.08v3.586h-5.08v10.283h6.75v3.586H96.795V2.988z"/>
	<path d="M114.162,6.574h-4.834V2.988h14.203v3.586h-4.816v26.438h-4.553V6.574z"/>
	<path d="M126.607,2.988h4.553v30.023h-4.553V2.988z"/>
	<path d="M136.293,2.988h3.691l7.277,20.092h0.105c-0.035-0.469-0.082-0.99-0.141-1.564s-0.111-1.228-0.158-1.96
		s-0.088-1.562-0.123-2.487s-0.053-1.969-0.053-3.129V2.988h4.078v30.023h-3.727l-7.242-19.564h-0.141
		c0.035,0.527,0.082,1.099,0.141,1.714s0.111,1.339,0.158,2.171s0.088,1.802,0.123,2.909s0.053,2.423,0.053,3.946v8.824h-4.043
		V2.988z"/>
	<path d="M162.168,33.293c-0.352,0-0.762-0.038-1.23-0.114s-0.952-0.237-1.45-0.483s-0.987-0.595-1.468-1.046
		s-0.911-1.049-1.292-1.793s-0.688-1.658-0.923-2.742s-0.352-2.376-0.352-3.876V12.604c0-1.512,0.123-2.804,0.369-3.876
		s0.574-1.975,0.984-2.707s0.882-1.315,1.415-1.749s1.087-0.765,1.661-0.993s1.143-0.378,1.705-0.448s1.084-0.105,1.564-0.105
		c1.219,0,2.247,0.167,3.085,0.501s1.518,0.791,2.039,1.371s0.896,1.257,1.125,2.03s0.343,1.594,0.343,2.461
		c0,0.645-0.038,1.239-0.114,1.784s-0.179,1.146-0.308,1.802h-3.639V11.25c0-3.293-0.885-4.939-2.654-4.939
		c-0.48,0-0.896,0.082-1.248,0.246s-0.645,0.442-0.879,0.835s-0.407,0.911-0.519,1.556s-0.167,1.447-0.167,2.408v13.605
		c0,0.938,0.056,1.717,0.167,2.338s0.281,1.119,0.51,1.494s0.516,0.642,0.861,0.8s0.759,0.237,1.239,0.237
		c0.504,0,0.938-0.132,1.301-0.396s0.662-0.624,0.896-1.081s0.407-0.996,0.519-1.617s0.167-1.295,0.167-2.021v-3.92h-2.338v-2.988
		h6.768v15.205h-3.023l-0.492-2.848c-0.574,1.113-1.233,1.913-1.978,2.399S163.188,33.293,162.168,33.293z"/>
	<path d="M188.271,33.293c-0.352,0-0.762-0.038-1.23-0.114s-0.952-0.237-1.45-0.483s-0.987-0.595-1.468-1.046
		s-0.911-1.049-1.292-1.793s-0.688-1.658-0.923-2.742s-0.352-2.376-0.352-3.876V12.604c0-1.512,0.123-2.804,0.369-3.876
		s0.574-1.975,0.984-2.707s0.882-1.315,1.415-1.749s1.087-0.765,1.661-0.993s1.143-0.378,1.705-0.448s1.084-0.105,1.564-0.105
		c1.219,0,2.247,0.167,3.085,0.501s1.518,0.791,2.039,1.371s0.896,1.257,1.125,2.03s0.343,1.594,0.343,2.461
		c0,0.645-0.038,1.239-0.114,1.784s-0.179,1.146-0.308,1.802h-3.639V11.25c0-3.293-0.885-4.939-2.654-4.939
		c-0.48,0-0.896,0.082-1.248,0.246s-0.645,0.442-0.879,0.835s-0.407,0.911-0.519,1.556s-0.167,1.447-0.167,2.408v13.605
		c0,0.938,0.056,1.717,0.167,2.338s0.281,1.119,0.51,1.494s0.516,0.642,0.861,0.8s0.759,0.237,1.239,0.237
		c0.504,0,0.938-0.132,1.301-0.396s0.662-0.624,0.896-1.081s0.407-0.996,0.519-1.617s0.167-1.295,0.167-2.021v-3.92h-2.338v-2.988
		h6.768v15.205h-3.023l-0.492-2.848c-0.574,1.113-1.233,1.913-1.978,2.399S189.291,33.293,188.271,33.293z"/>
	<path d="M200.611,2.988h4.553v30.023h-4.553V2.988z"/>
	<path d="M216.941,33.275c-0.48,0-1.002-0.038-1.564-0.114s-1.119-0.237-1.67-0.483s-1.081-0.595-1.591-1.046
		s-0.961-1.046-1.354-1.784s-0.706-1.649-0.94-2.733s-0.352-2.376-0.352-3.876V12.604c0-1.512,0.12-2.804,0.36-3.876
		s0.56-1.975,0.958-2.707s0.853-1.315,1.362-1.749s1.043-0.765,1.6-0.993s1.11-0.378,1.661-0.448s1.061-0.105,1.529-0.105
		c0.445,0,0.94,0.032,1.485,0.097s1.09,0.205,1.635,0.422s1.075,0.539,1.591,0.967s0.973,1.008,1.371,1.74s0.718,1.641,0.958,2.725
		s0.36,2.394,0.36,3.929v10.635c0,1.488-0.123,2.769-0.369,3.841s-0.568,1.98-0.967,2.725s-0.858,1.342-1.38,1.793
		s-1.055,0.803-1.6,1.055s-1.087,0.419-1.626,0.501S217.375,33.275,216.941,33.275z M216.941,29.848
		c0.445,0,0.835-0.076,1.169-0.229s0.609-0.416,0.826-0.791s0.381-0.87,0.492-1.485s0.167-1.392,0.167-2.329V11.355
		c0-0.961-0.056-1.764-0.167-2.408s-0.275-1.163-0.492-1.556s-0.492-0.671-0.826-0.835s-0.724-0.246-1.169-0.246
		c-0.457,0-0.855,0.082-1.195,0.246s-0.621,0.442-0.844,0.835s-0.39,0.911-0.501,1.556s-0.167,1.447-0.167,2.408v13.658
		c0,0.938,0.056,1.714,0.167,2.329s0.278,1.11,0.501,1.485s0.504,0.639,0.844,0.791S216.484,29.848,216.941,29.848z"/>
	<path d="M226.416,2.988h4.658l3.305,23.783h0.193l3.322-23.783h4.641l-5.467,30.023h-5.203L226.416,2.988z"/>
	<path d="M248.74,2.988h5.238l5.555,30.023h-4.605l-0.826-5.379h-5.484l-0.791,5.379h-4.623L248.74,2.988z M253.574,24.205
		l-2.109-14.959h-0.193l-2.127,14.959H253.574z"/>
	<path d="M262.434,2.988h3.691l7.277,20.092h0.105c-0.035-0.469-0.082-0.99-0.141-1.564s-0.111-1.228-0.158-1.96
		s-0.088-1.562-0.123-2.487s-0.053-1.969-0.053-3.129V2.988h4.078v30.023h-3.727l-7.242-19.564h-0.141
		c0.035,0.527,0.082,1.099,0.141,1.714s0.111,1.339,0.158,2.171s0.088,1.802,0.123,2.909s0.053,2.423,0.053,3.946v8.824h-4.043
		V2.988z"/>
	<path d="M282.244,2.988h4.553v30.023h-4.553V2.988z"/>
	<path d="M290.77,26.93c0-0.645,0.039-1.239,0.115-1.784s0.189-1.134,0.342-1.767h3.533v1.459c0,0.809,0.051,1.523,0.15,2.145
		s0.264,1.146,0.492,1.573s0.533,0.75,0.914,0.967s0.846,0.325,1.396,0.325c0.867,0,1.529-0.237,1.986-0.712
		s0.686-1.169,0.686-2.083c0-0.469-0.031-0.899-0.096-1.292s-0.176-0.782-0.334-1.169s-0.373-0.794-0.643-1.222
		s-0.615-0.905-1.037-1.433l-4.746-5.643c-0.844-1.078-1.494-2.165-1.951-3.261s-0.686-2.265-0.686-3.507
		c0-0.996,0.156-1.91,0.467-2.742s0.758-1.55,1.344-2.153s1.311-1.072,2.172-1.406s1.836-0.501,2.926-0.501
		c1.324,0,2.43,0.188,3.314,0.562s1.59,0.867,2.117,1.477s0.9,1.292,1.117,2.048s0.324,1.515,0.324,2.276
		c0,0.645-0.049,1.239-0.148,1.784s-0.215,1.146-0.344,1.802h-3.516V11.25c0-1.594-0.229-2.815-0.686-3.665
		s-1.201-1.274-2.232-1.274c-0.855,0-1.494,0.237-1.916,0.712s-0.633,1.11-0.633,1.907c0,0.422,0.033,0.803,0.098,1.143
		s0.158,0.653,0.281,0.94s0.271,0.565,0.447,0.835s0.375,0.551,0.598,0.844l5.291,6.398c0.961,1.254,1.699,2.458,2.215,3.612
		s0.773,2.376,0.773,3.665c0,1.066-0.166,2.027-0.5,2.883s-0.812,1.582-1.434,2.18s-1.371,1.058-2.25,1.38s-1.869,0.483-2.971,0.483
		c-1.359,0-2.486-0.182-3.383-0.545s-1.611-0.844-2.145-1.441s-0.908-1.277-1.125-2.039S290.77,27.727,290.77,26.93z"/>
	<path d="M307.574,26.93c0-0.645,0.039-1.239,0.115-1.784s0.189-1.134,0.342-1.767h3.533v1.459c0,0.809,0.051,1.523,0.15,2.145
		s0.264,1.146,0.492,1.573s0.533,0.75,0.914,0.967s0.846,0.325,1.396,0.325c0.867,0,1.529-0.237,1.986-0.712
		s0.686-1.169,0.686-2.083c0-0.469-0.031-0.899-0.096-1.292s-0.176-0.782-0.334-1.169s-0.373-0.794-0.643-1.222
		s-0.615-0.905-1.037-1.433l-4.746-5.643c-0.844-1.078-1.494-2.165-1.951-3.261s-0.686-2.265-0.686-3.507
		c0-0.996,0.156-1.91,0.467-2.742s0.758-1.55,1.344-2.153s1.311-1.072,2.172-1.406s1.836-0.501,2.926-0.501
		c1.324,0,2.43,0.188,3.314,0.562s1.59,0.867,2.117,1.477s0.9,1.292,1.117,2.048s0.324,1.515,0.324,2.276
		c0,0.645-0.049,1.239-0.148,1.784s-0.215,1.146-0.344,1.802h-3.516V11.25c0-1.594-0.229-2.815-0.686-3.665
		s-1.201-1.274-2.232-1.274c-0.855,0-1.494,0.237-1.916,0.712s-0.633,1.11-0.633,1.907c0,0.422,0.033,0.803,0.098,1.143
		s0.158,0.653,0.281,0.94s0.271,0.565,0.447,0.835s0.375,0.551,0.598,0.844l5.291,6.398c0.961,1.254,1.699,2.458,2.215,3.612
		s0.773,2.376,0.773,3.665c0,1.066-0.166,2.027-0.5,2.883s-0.812,1.582-1.434,2.18s-1.371,1.058-2.25,1.38s-1.869,0.483-2.971,0.483
		c-1.359,0-2.486-0.182-3.383-0.545s-1.611-0.844-2.145-1.441s-0.908-1.277-1.125-2.039S307.574,27.727,307.574,26.93z"/>
	<path d="M325.539,2.988h4.553v30.023h-4.553V2.988z"/>
	<path d="M335.225,2.988h5.941l2.883,11.619c0.305,1.289,0.545,2.517,0.721,3.683s0.346,2.265,0.51,3.296h0.141
		c0.164-1.031,0.334-2.13,0.51-3.296s0.416-2.394,0.721-3.683l2.971-11.619h5.818v30.023h-4.254V23.08
		c0-1.523,0.016-2.988,0.045-4.395s0.066-2.698,0.113-3.876s0.1-2.218,0.158-3.12s0.111-1.617,0.158-2.145h-0.334l-4.535,19.6
		h-2.883l-4.57-19.6h-0.334c0.047,0.527,0.1,1.242,0.158,2.145s0.111,1.942,0.158,3.12s0.086,2.47,0.115,3.876
		s0.043,2.871,0.043,4.395v9.932h-4.254V2.988z"/>
	<path d="M360.572,2.988h4.553v30.023h-4.553V2.988z"/>
	<path d="M377.184,30.34l6.627-12.762c0.609-1.16,1.105-2.174,1.486-3.041s0.68-1.626,0.896-2.276s0.365-1.216,0.447-1.696
		s0.123-0.914,0.123-1.301c0-0.609-0.055-1.122-0.166-1.538s-0.275-0.75-0.492-1.002s-0.486-0.431-0.809-0.536
		s-0.695-0.158-1.117-0.158c-1.031,0-1.777,0.425-2.24,1.274s-0.695,2.071-0.695,3.665v1.705h-3.516
		c-0.129-0.656-0.24-1.257-0.334-1.802s-0.141-1.14-0.141-1.784c0-0.762,0.133-1.521,0.396-2.276s0.676-1.438,1.238-2.048
		s1.281-1.102,2.154-1.477s1.918-0.562,3.137-0.562c1.312,0,2.436,0.152,3.367,0.457s1.695,0.75,2.293,1.336
		s1.035,1.301,1.311,2.145s0.412,1.799,0.412,2.865c0,0.609-0.055,1.21-0.166,1.802s-0.297,1.225-0.555,1.898
		s-0.592,1.409-1.002,2.206s-0.914,1.711-1.512,2.742l-5.924,11.25h8.771v3.586h-13.992V30.34z"/>
	<path d="M394.674,11.566c0-1.312,0.121-2.446,0.361-3.401s0.557-1.758,0.949-2.408s0.846-1.175,1.361-1.573
		s1.047-0.706,1.592-0.923s1.09-0.36,1.635-0.431s1.045-0.105,1.502-0.105c0.434,0,0.918,0.032,1.451,0.097s1.072,0.199,1.617,0.404
		s1.072,0.504,1.582,0.896s0.961,0.917,1.354,1.573s0.709,1.465,0.949,2.426s0.359,2.109,0.359,3.445v12.691
		c0,1.312-0.119,2.446-0.359,3.401s-0.561,1.767-0.959,2.435s-0.855,1.21-1.371,1.626s-1.043,0.738-1.582,0.967
		s-1.074,0.384-1.607,0.466s-1.012,0.123-1.434,0.123c-0.469,0-0.979-0.041-1.529-0.123s-1.102-0.237-1.652-0.466
		s-1.08-0.548-1.59-0.958s-0.959-0.949-1.346-1.617s-0.697-1.482-0.932-2.443s-0.352-2.098-0.352-3.41V11.566z M399.332,26.174
		c0,1.242,0.227,2.145,0.678,2.707s1.139,0.844,2.064,0.844c0.902,0,1.576-0.281,2.021-0.844s0.668-1.465,0.668-2.707V9.914
		c0-1.312-0.223-2.268-0.668-2.865s-1.119-0.896-2.021-0.896c-0.926,0-1.613,0.299-2.064,0.896s-0.678,1.553-0.678,2.865V26.174z"/>
	<path d="M413.904,29.584h3.48V9.105l-3.727,3.287l-1.969-2.303l6.82-7.102h3.393l-0.018,0.035l0.018-0.018v26.578h3.463v3.428
		h-11.461V29.584z"/>
	<path d="M435.367,6.996h-8.824V2.971h13.711v2.408l-8.262,27.633h-4.939L435.367,6.996z"/>
</g>
<g>
	<rect x="167.992" y="136.559" fill="none" width="3" height="0"/>
</g>
<g>
	<g>
		<path d="M5.459,44.693c3.237-0.022,4.855-0.034,8.092-0.056c1.021-0.007,2.141,0.033,3.359,0.117s2.438,0.291,3.656,0.619
			s2.394,0.833,3.529,1.514c1.135,0.681,2.139,1.608,3.013,2.783s1.578,2.646,2.108,4.415c0.53,1.769,0.794,3.922,0.793,6.466
			c0,0.727,0,1.089,0,1.816c-0.001,2.766-0.248,5.14-0.738,7.128c-0.491,1.988-1.143,3.673-1.956,5.056
			c-0.812,1.383-1.754,2.507-2.826,3.372c-1.073,0.865-2.187,1.538-3.342,2.015c-1.155,0.478-2.322,0.815-3.498,1.011
			c-1.176,0.196-2.284,0.322-3.325,0.379c-0.312,0.017-0.468,0.025-0.78,0.042c-0.001,6.431-0.001,9.648-0.003,16.079
			c-3.233,0.244-4.851,0.367-8.083,0.62C5.458,80.276,5.459,62.484,5.459,44.693z M13.951,75.476
			c1.457-0.068,2.686-0.335,3.685-0.801c1-0.465,1.795-1.156,2.389-2.07s1.021-2.074,1.282-3.482
			c0.261-1.407,0.391-3.09,0.392-5.048c0-1.885,0.001-2.827,0.002-4.712c0-1.55-0.114-2.889-0.342-4.017
			c-0.229-1.128-0.64-2.056-1.233-2.782s-1.39-1.26-2.389-1.604c-1-0.344-2.26-0.506-3.78-0.484
			c-0.163,0.002-0.244,0.003-0.407,0.005c-0.002,10.005-0.003,15.008-0.005,25.013C13.708,75.487,13.789,75.483,13.951,75.476z"/>
		<path d="M47.909,95.492c-0.854,0.055-1.779,0.052-2.778-0.012c-0.999-0.064-1.988-0.273-2.966-0.626
			c-0.979-0.354-1.919-0.883-2.824-1.594c-0.905-0.71-1.705-1.674-2.401-2.893c-0.697-1.218-1.252-2.744-1.667-4.576
			c-0.416-1.832-0.622-4.035-0.621-6.604c0.005-7.287,0.007-10.929,0.012-18.216c0.002-2.589,0.217-4.808,0.646-6.65
			c0.428-1.843,0.996-3.395,1.706-4.655c0.709-1.259,1.516-2.261,2.423-3.008c0.907-0.746,1.855-1.316,2.845-1.71
			c0.989-0.395,1.973-0.652,2.953-0.777c0.979-0.125,1.886-0.189,2.719-0.193c0.792-0.004,1.671,0.046,2.64,0.149
			c0.969,0.104,1.937,0.334,2.905,0.692c0.968,0.358,1.911,0.89,2.827,1.597c0.916,0.708,1.728,1.667,2.435,2.879
			c0.707,1.212,1.272,2.717,1.697,4.512c0.425,1.795,0.638,3.967,0.635,6.518c-0.008,7.067-0.013,10.601-0.02,17.668
			c-0.002,2.473-0.223,4.61-0.662,6.414s-1.013,3.345-1.722,4.623c-0.709,1.279-1.528,2.321-2.455,3.129
			c-0.927,0.808-1.875,1.456-2.843,1.938c-0.968,0.482-1.932,0.823-2.89,1.022C49.544,95.316,48.679,95.442,47.909,95.492z
			 M47.915,89.711c0.791-0.046,1.485-0.214,2.079-0.504s1.082-0.762,1.468-1.413c0.386-0.651,0.677-1.497,0.876-2.539
			c0.199-1.042,0.3-2.349,0.301-3.921c0.009-9.162,0.013-13.745,0.021-22.907c0.001-1.611-0.096-2.955-0.292-4.033
			c-0.197-1.078-0.489-1.944-0.874-2.598c-0.385-0.654-0.873-1.116-1.466-1.385c-0.593-0.269-1.287-0.397-2.079-0.388
			c-0.812,0.01-1.52,0.157-2.124,0.442c-0.604,0.286-1.105,0.763-1.501,1.434c-0.396,0.671-0.693,1.555-0.892,2.651
			c-0.199,1.096-0.299,2.459-0.301,4.088c-0.007,9.264-0.012,13.895-0.019,23.158c-0.001,1.59,0.097,2.902,0.294,3.934
			c0.197,1.032,0.493,1.854,0.888,2.466c0.395,0.613,0.893,1.03,1.497,1.252C46.396,89.672,47.103,89.759,47.915,89.711z"/>
		<path d="M68.766,44.308c3.512-0.018,5.269-0.026,8.781-0.043c1-0.005,2.099,0.028,3.297,0.098c1.198,0.07,2.395,0.25,3.592,0.538
			c1.197,0.289,2.353,0.723,3.467,1.302c1.113,0.58,2.103,1.376,2.966,2.388c0.863,1.012,1.553,2.285,2.072,3.814
			c0.519,1.53,0.778,3.386,0.775,5.57c0,0.486-0.001,0.729-0.002,1.215c-0.005,3.673-0.592,6.674-1.762,9.017
			c-1.17,2.343-2.891,4.063-5.163,5.162c3.415,7.656,5.121,11.454,8.535,18.992c-3.424,0.168-5.136,0.254-8.561,0.431
			c-2.828-7.122-4.24-10.707-7.068-17.925c-1.212,0.043-1.817,0.065-3.03,0.109c-0.009,7.342-0.014,11.014-0.023,18.356
			c-3.174,0.175-4.761,0.264-7.935,0.446C68.73,77.289,68.745,60.799,68.766,44.308z M77.891,69.568
			c1.416-0.043,2.613-0.223,3.593-0.538c0.979-0.315,1.772-0.817,2.378-1.509c0.605-0.691,1.042-1.595,1.315-2.713
			c0.272-1.118,0.409-2.492,0.411-4.125c0.002-1.538,0.004-2.307,0.006-3.845c0.001-1.253-0.123-2.332-0.372-3.24
			s-0.67-1.653-1.263-2.235c-0.593-0.582-1.378-1.011-2.357-1.287c-0.979-0.275-2.208-0.407-3.687-0.391
			c-0.487,0.005-0.731,0.009-1.219,0.014c-0.01,7.963-0.015,11.943-0.024,19.906C77.159,69.589,77.404,69.583,77.891,69.568z"/>
		<path d="M106.445,49.833c-3.438,0.031-5.155,0.046-8.592,0.079c0.003-2.296,0.004-3.444,0.007-5.741
			c10.1-0.043,15.15-0.064,25.25-0.101c-0.003,2.248-0.004,3.372-0.007,5.62c-3.425,0.027-5.137,0.042-8.562,0.071
			c-0.021,13.907-0.038,27.814-0.059,41.721c-3.238,0.139-4.856,0.209-8.093,0.356C106.406,77.837,106.425,63.835,106.445,49.833z"
			/>
		<path d="M140.33,90.889c-0.855,0.03-1.782,0.004-2.782-0.078c-1-0.083-1.989-0.298-2.968-0.646s-1.921-0.854-2.827-1.524
			c-0.906-0.67-1.706-1.569-2.402-2.697c-0.697-1.127-1.253-2.531-1.668-4.21c-0.415-1.679-0.619-3.692-0.616-6.036
			c0.009-6.646,0.014-9.971,0.022-16.617c0.003-2.362,0.219-4.384,0.648-6.062c0.429-1.679,1-3.092,1.71-4.24
			c0.709-1.147,1.518-2.06,2.425-2.739c0.907-0.679,1.855-1.198,2.845-1.557c0.99-0.358,1.975-0.594,2.955-0.706
			c0.979-0.112,1.885-0.169,2.719-0.171c0.792-0.002,1.672,0.045,2.641,0.142c0.969,0.097,1.938,0.312,2.906,0.643
			c0.968,0.332,1.91,0.824,2.826,1.479c0.916,0.655,1.728,1.543,2.435,2.665c0.707,1.122,1.271,2.514,1.697,4.174
			c0.425,1.661,0.639,3.669,0.636,6.025c-0.008,6.529-0.014,9.793-0.022,16.322c-0.003,2.284-0.224,4.253-0.664,5.91
			s-1.014,3.069-1.724,4.232c-0.71,1.164-1.53,2.106-2.458,2.829c-0.928,0.723-1.877,1.295-2.847,1.715
			c-0.97,0.42-1.935,0.709-2.893,0.869C141.965,90.769,141.101,90.862,140.33,90.889z M140.336,85.584
			c0.792-0.025,1.485-0.162,2.08-0.416s1.084-0.677,1.471-1.268c0.386-0.59,0.679-1.363,0.878-2.318
			c0.199-0.955,0.299-2.155,0.301-3.602c0.011-8.429,0.017-12.643,0.027-21.072c0.002-1.482-0.096-2.719-0.292-3.712
			c-0.197-0.993-0.488-1.792-0.872-2.396c-0.385-0.603-0.874-1.03-1.467-1.28c-0.593-0.25-1.287-0.372-2.078-0.366
			c-0.812,0.005-1.521,0.137-2.125,0.396c-0.605,0.259-1.104,0.694-1.501,1.306c-0.397,0.612-0.694,1.42-0.894,2.422
			c-0.2,1.003-0.302,2.25-0.304,3.743c-0.011,8.484-0.017,12.726-0.028,21.209c-0.002,1.456,0.097,2.659,0.294,3.608
			c0.197,0.949,0.492,1.709,0.887,2.279c0.395,0.57,0.894,0.963,1.498,1.18C138.815,85.515,139.524,85.609,140.336,85.584z"/>
		<path d="M172.792,80.292c0.001-0.979,0.07-1.884,0.207-2.714c0.136-0.83,0.339-1.728,0.611-2.693
			c2.514-0.042,3.771-0.063,6.285-0.102c-0.001,0.883,0,1.325-0.001,2.209c-0.001,1.224,0.086,2.306,0.262,3.243
			c0.176,0.938,0.466,1.726,0.872,2.365c0.406,0.64,0.947,1.116,1.624,1.431c0.677,0.315,1.507,0.464,2.487,0.446
			c1.542-0.028,2.721-0.407,3.535-1.136s1.22-1.783,1.221-3.162c0-0.707-0.058-1.354-0.171-1.945
			c-0.114-0.59-0.311-1.175-0.591-1.754s-0.662-1.188-1.14-1.828c-0.479-0.639-1.093-1.351-1.842-2.137
			c-3.374-3.364-5.059-5.05-8.432-8.433c-1.499-1.617-2.653-3.255-3.464-4.911c-0.811-1.655-1.216-3.427-1.214-5.313
			c0.001-1.513,0.278-2.903,0.832-4.169c0.553-1.266,1.351-2.357,2.394-3.276c1.042-0.918,2.331-1.633,3.862-2.142
			s3.267-0.764,5.204-0.767c2.354-0.004,4.317,0.276,5.89,0.838c1.572,0.562,2.828,1.302,3.765,2.217
			c0.937,0.915,1.596,1.94,1.98,3.076c0.384,1.136,0.579,2.276,0.578,3.422c-0.001,0.969-0.091,1.863-0.269,2.684
			c-0.178,0.82-0.382,1.726-0.612,2.714c-2.5,0.016-3.751,0.024-6.252,0.042c0-0.858,0.002-1.289,0.002-2.147
			c0.002-2.402-0.404-4.241-1.215-5.52c-0.812-1.278-2.133-1.915-3.966-1.908c-1.521,0.006-2.658,0.369-3.409,1.09
			s-1.127,1.686-1.128,2.892c0,0.639,0.057,1.215,0.171,1.728c0.114,0.514,0.279,0.987,0.497,1.42
			c0.218,0.433,0.485,0.853,0.797,1.258c0.312,0.406,0.666,0.827,1.062,1.267c3.76,3.839,5.64,5.751,9.4,9.568
			c1.707,1.872,3.02,3.67,3.936,5.396c0.916,1.726,1.373,3.557,1.372,5.495c-0.001,1.604-0.3,3.055-0.895,4.35
			c-0.595,1.295-1.445,2.398-2.551,3.315c-1.106,0.917-2.44,1.634-4.004,2.148s-3.326,0.792-5.285,0.832
			c-2.418,0.049-4.424-0.182-6.019-0.697s-2.866-1.215-3.813-2.101c-0.948-0.886-1.613-1.902-1.997-3.051
			C172.982,82.683,172.79,81.503,172.792,80.292z"/>
		<path d="M210.645,43.867c3.725-0.004,5.589-0.005,9.314-0.008c3.28,14.941,6.569,29.881,9.861,44.82
			c-3.277,0.019-4.917,0.031-8.194,0.059c-0.587-3.211-0.88-4.817-1.466-8.03c-3.902,0.029-5.854,0.046-9.756,0.085
			c-0.564,3.229-0.847,4.844-1.411,8.076c-3.29,0.041-4.935,0.063-8.225,0.113C204.056,73.943,207.346,58.904,210.645,43.867z
			 M219.225,75.588c-1.497-8.938-2.246-13.41-3.742-22.36c-0.138,0-0.206,0-0.344,0.001c-1.517,8.96-2.276,13.443-3.794,22.42
			C214.496,75.622,216.073,75.609,219.225,75.588z"/>
		<path d="M234.988,43.849c2.625-0.001,3.939-0.001,6.564-0.002c4.312,9.991,8.626,19.982,12.941,29.973c0.075,0,0.112,0,0.188,0
			c-0.062-0.699-0.146-1.477-0.25-2.333c-0.104-0.856-0.197-1.833-0.281-2.926c-0.084-1.092-0.157-2.328-0.22-3.709
			c-0.062-1.381-0.095-2.937-0.095-4.667c0-6.534-0.002-9.803-0.002-16.337c2.9,0,4.353,0.001,7.253,0.002
			c-0.001,14.936,0.005,29.871,0.007,44.807c-2.652-0.011-3.979-0.014-6.631-0.02c-4.29-9.73-8.586-19.458-12.882-29.186
			c-0.1,0-0.15,0-0.25,0c0.062,0.787,0.146,1.64,0.25,2.557c0.104,0.917,0.198,1.998,0.281,3.238
			c0.083,1.241,0.158,2.687,0.221,4.339s0.091,3.614,0.091,5.886c0,5.265-0.001,7.898-0.001,13.163
			c-2.877,0.005-4.315,0.01-7.192,0.022C234.983,73.719,234.984,58.784,234.988,43.849z"/>
		<path d="M275.15,49.22c-3.438-0.006-5.154-0.01-8.593-0.014c-0.001-2.142-0.002-3.213-0.003-5.354
			c10.101,0.005,15.152,0.01,25.253,0.022c0.001,2.153,0.002,3.23,0.003,5.383c-3.426-0.01-5.138-0.014-8.563-0.021
			c0.004,13.198,0.012,26.396,0.021,39.594c-3.24-0.037-4.859-0.052-8.1-0.08C275.165,75.573,275.152,62.396,275.15,49.22z"/>
		<path d="M306.715,45.381c-1.871,5.001-2.807,7.497-4.679,12.482c-2.463-0.016-3.694-0.024-6.157-0.038
			c0.985-4.189,1.478-6.285,2.462-10.48c-0.002-3.162-0.004-4.742-0.006-7.904c3.35,0,5.025,0,8.375,0
			C306.712,41.816,306.713,43.005,306.715,45.381z"/>
		<path d="M316.653,43.916c7.913,0.016,11.869,0.025,19.782,0.045c0.002,2.194,0.005,3.292,0.007,5.487
			c-4.676-0.026-7.014-0.04-11.689-0.063c0.006,5.463,0.007,8.195,0.013,13.658c3.613,0.042,5.422,0.064,9.035,0.111
			c0.003,2.191,0.003,3.288,0.006,5.479c-3.613-0.058-5.421-0.086-9.034-0.138c0.007,6.254,0.011,9.38,0.018,15.634
			c4.803,0.106,7.202,0.162,12.004,0.285c0.003,2.195,0.003,3.292,0.006,5.487c-8.041-0.23-12.062-0.332-20.104-0.51
			C316.68,74.232,316.665,59.074,316.653,43.916z"/>
		<path d="M342.591,43.977c3.237,0.009,4.856,0.013,8.094,0.023c0.019,13.599,0.035,27.198,0.051,40.796
			c4.414,0.13,6.622,0.2,11.035,0.344c0.003,2.23,0.004,3.346,0.007,5.576c-7.652-0.28-11.479-0.409-19.132-0.643
			C342.627,74.708,342.609,59.343,342.591,43.977z"/>
		<path d="M366.842,44.052c3.237,0.011,4.856,0.017,8.094,0.029c1.021,0.004,2.141,0.049,3.359,0.137s2.438,0.286,3.656,0.597
			s2.396,0.784,3.532,1.421c1.136,0.638,2.143,1.505,3.02,2.601s1.582,2.468,2.115,4.115c0.533,1.647,0.802,3.647,0.805,5.998
			c0.001,0.672,0.001,1.007,0.002,1.679c0.004,2.556-0.24,4.738-0.727,6.544c-0.487,1.806-1.134,3.318-1.944,4.533
			c-0.811,1.215-1.754,2.177-2.825,2.888c-1.072,0.711-2.188,1.239-3.344,1.583c-1.156,0.344-2.32,0.557-3.497,0.641
			c-1.178,0.084-2.287,0.111-3.328,0.08c-0.312-0.009-0.469-0.015-0.781-0.024c0.008,5.742,0.011,8.613,0.019,14.355
			c-3.238-0.132-4.854-0.196-8.093-0.32C366.882,75.289,366.858,59.67,366.842,44.052z M375.379,71.64
			c1.458,0.037,2.688-0.121,3.687-0.474c0.999-0.353,1.795-0.923,2.388-1.713s1.019-1.817,1.277-3.08
			c0.258-1.262,0.387-2.784,0.385-4.562c-0.002-1.712-0.004-2.567-0.006-4.279c-0.002-1.408-0.121-2.626-0.351-3.657
			c-0.23-1.031-0.642-1.883-1.236-2.555s-1.392-1.174-2.392-1.506c-1-0.331-2.263-0.502-3.783-0.514
			c-0.162-0.001-0.244-0.002-0.406-0.003c0.012,8.933,0.02,13.4,0.031,22.333C375.135,71.634,375.217,71.636,375.379,71.64z"/>
		<path d="M397.53,44.17c3.237,0.014,4.854,0.022,8.092,0.037c0.017,16.142,0.037,32.284,0.063,48.426
			c-3.236-0.164-4.855-0.244-8.093-0.4C397.57,76.212,397.55,60.191,397.53,44.17z"/>
		<path d="M414.746,44.249c3.362,0.016,5.044,0.024,8.406,0.041c1.271,0.006,2.588,0.048,3.953,0.123
			c1.364,0.075,2.697,0.29,4,0.647c1.302,0.357,2.533,0.904,3.69,1.644s2.174,1.773,3.05,3.103s1.569,3.003,2.081,5.019
			s0.77,4.478,0.772,7.379c0.006,5.834,0.01,8.752,0.016,14.587c0.003,2.902-0.25,5.351-0.758,7.343
			c-0.509,1.992-1.2,3.618-2.073,4.879c-0.873,1.261-1.886,2.222-3.041,2.886s-2.383,1.132-3.684,1.406
			c-1.302,0.273-2.635,0.405-3.998,0.394c-1.364-0.011-2.681-0.053-3.95-0.125c-3.361-0.189-5.042-0.282-8.403-0.462
			C414.787,76.823,414.767,60.536,414.746,44.249z M424.954,88.44c1.457,0.075,2.66-0.036,3.607-0.335
			c0.946-0.299,1.695-0.875,2.247-1.729c0.551-0.854,0.928-2.04,1.135-3.554c0.206-1.514,0.31-3.437,0.307-5.767
			c-0.007-6.176-0.009-9.266-0.016-15.442c-0.003-2.331-0.11-4.261-0.32-5.788s-0.591-2.738-1.144-3.628
			c-0.554-0.89-1.304-1.513-2.251-1.872c-0.948-0.359-2.152-0.546-3.61-0.562c-0.825-0.009-1.237-0.014-2.062-0.022
			c0.021,12.864,0.031,25.729,0.045,38.593C423.716,88.375,424.13,88.397,424.954,88.44z"/>
		<path d="M447.901,44.424c3.237,0.019,4.856,0.028,8.094,0.048c0.012,17.042,0.024,34.084,0.038,51.126
			c-3.234-0.217-4.854-0.322-8.089-0.531C447.932,78.187,447.914,61.306,447.901,44.424z"/>
		<path d="M476.946,97.532c-0.854-0.063-1.779-0.2-2.778-0.405c-0.999-0.206-1.988-0.558-2.966-1.055
			c-0.979-0.497-1.92-1.165-2.825-2.007c-0.905-0.841-1.707-1.921-2.404-3.238c-0.698-1.317-1.257-2.92-1.674-4.808
			s-0.626-4.119-0.628-6.697c-0.005-7.311-0.007-10.966-0.011-18.278c-0.002-2.598,0.21-4.814,0.637-6.651
			c0.426-1.836,0.991-3.38,1.699-4.634c0.707-1.253,1.514-2.251,2.419-2.993c0.905-0.741,1.854-1.307,2.845-1.696
			c0.989-0.39,1.971-0.644,2.95-0.76c0.979-0.116,1.884-0.172,2.718-0.167c0.791,0.005,1.676,0.066,2.645,0.185
			c0.969,0.119,1.936,0.373,2.904,0.761c0.969,0.389,1.909,0.964,2.826,1.729c0.916,0.765,1.729,1.8,2.438,3.108
			c0.708,1.308,1.276,2.93,1.703,4.864s0.641,4.268,0.641,6.997c0,7.562,0,11.344,0,18.906c0,2.646-0.22,4.91-0.656,6.787
			s-1.008,3.45-1.715,4.719c-0.708,1.27-1.525,2.268-2.451,2.997c-0.927,0.729-1.873,1.278-2.841,1.649
			c-0.968,0.372-1.927,0.592-2.884,0.665C478.579,97.581,477.716,97.589,476.946,97.532z M476.943,91.542
			c0.79,0.053,1.482-0.035,2.075-0.262c0.593-0.227,1.084-0.657,1.469-1.29c0.384-0.633,0.675-1.484,0.873-2.553
			c0.197-1.069,0.296-2.428,0.296-4.076c-0.002-9.605-0.005-14.408-0.007-24.014c0-1.689-0.099-3.104-0.297-4.24
			s-0.49-2.054-0.875-2.75c-0.386-0.695-0.875-1.191-1.469-1.488c-0.594-0.296-1.287-0.448-2.078-0.459
			c-0.812-0.011-1.521,0.122-2.125,0.398c-0.604,0.277-1.102,0.754-1.497,1.431c-0.396,0.677-0.693,1.574-0.891,2.69
			c-0.197,1.116-0.294,2.508-0.293,4.177c0.004,9.489,0.005,14.233,0.009,23.722c0.001,1.628,0.099,2.982,0.297,4.063
			c0.197,1.081,0.494,1.959,0.891,2.636c0.396,0.678,0.896,1.169,1.5,1.474C475.424,91.307,476.132,91.487,476.943,91.542z"/>
	</g>
</g>
<g>
</g>
<g>
</g>
<g>
</g>
<g>
</g>
<g>
</g>
<g>
</g>
</svg>
